<svg height="472pt" viewBox="-54 0 471 472" width="472pt" xmlns="http://www.w3.org/2000/svg"><path d="m272.5 464h-168v-48h184zm0 0" fill="#eeb58e"/><path d="m176.5 432h16v32h-16zm0 0" fill="#bd9070"/><path d="m104.5 8h160c17.671875 0 32 14.328125 32 32v360c0 17.671875-14.328125 32-32 32h-160c-17.671875 0-32-14.328125-32-32v-360c0-17.671875 14.328125-32 32-32zm0 0" fill="#aae5c8"/><path d="m210.253906 40h-51.503906c-3.671875 0-6.871094-2.496094-7.761719-6.054688l-6.488281-25.945312h80l-6.488281 25.945312c-.890625 3.558594-4.089844 6.054688-7.757813 6.054688zm0 0" fill="#ebebeb"/><path d="m72.5 384h224v16c0 17.671875-14.328125 32-32 32h-160c-17.671875 0-32-14.328125-32-32zm0 0" fill="#ebebeb"/><g fill="#f6bb92"><path d="m281.910156 206.789062 34.875-19.589843c11.558594-6.488281 26.1875-2.382813 32.679688 9.175781 6.488281 11.554688 2.382812 26.1875-9.175782 32.675781l-34.875 19.589844c-11.554687 6.488281-26.1875 2.382813-32.675781-9.171875-6.492187-11.558594-2.386719-26.1875 9.171875-32.679688zm0 0"/><path d="m281.503906 262.066406 34.875-19.585937c11.558594-6.492188 26.1875-2.386719 32.679688 9.171875 6.492187 11.554687 2.382812 26.1875-9.171875 32.675781l-34.875 19.589844c-11.558594 6.492187-26.1875 2.382812-32.679688-9.171875-6.492187-11.558594-2.382812-26.1875 9.171875-32.679688zm0 0"/><path d="m284.480469 315.515625 34.875-19.589844c11.558593-6.492187 26.1875-2.382812 32.679687 9.171875 6.492188 11.558594 2.382813 26.1875-9.171875 32.679688l-34.875 19.585937c-11.558593 6.492188-26.1875 2.386719-32.679687-9.171875-6.492188-11.554687-2.382813-26.1875 9.171875-32.675781zm0 0"/><path d="m284.074219 370.664062 34.875-19.585937c11.554687-6.492187 26.1875-2.382813 32.679687 9.171875 6.488282 11.558594 2.382813 26.1875-9.175781 32.679688l-34.875 19.585937c-11.554687 6.492187-26.1875 2.386719-32.675781-9.171875-6.492188-11.554688-2.386719-26.1875 9.171875-32.679688zm0 0"/></g><path d="m248.5 280c0 35.347656-28.652344 64-64 64s-64-28.652344-64-64 28.652344-64 64-64 64 28.652344 64 64zm0 0" fill="#fbb540"/><path d="m196.925781 277.265625-17.691406-8.839844c-1.675781-.839843-2.734375-2.550781-2.734375-4.425781s1.058594-3.585938 2.734375-4.425781c3.320313-1.644531 7.21875-1.644531 10.539063 0l7.160156 3.585937c3.953125 1.976563 8.757812.371094 10.734375-3.585937 1.976562-3.953125.371093-8.757813-3.582031-10.734375l-7.203126-3.574219c-1.421874-.660156-2.898437-1.195313-4.414062-1.601563v-11.664062h-15.96875v11.671875c-1.515625.40625-2.996094.941406-4.425781 1.601563-7.09375 3.550781-11.570313 10.800781-11.570313 18.734374 0 7.933594 4.476563 15.183594 11.570313 18.734376l17.691406 8.84375c1.675781.835937 2.734375 2.546874 2.734375 4.421874s-1.058594 3.585938-2.734375 4.425782c-3.320313 1.644531-7.21875 1.644531-10.539063 0l-7.160156-3.585938c-3.953125-1.976562-8.757812-.371094-10.734375 3.585938-1.976562 3.953125-.371093 8.757812 3.585938 10.734375l7.15625 3.574219c1.425781.660156 2.902343 1.195312 4.417969 1.601562v11.65625h16v-11.671875c1.515624-.40625 2.996093-.941406 4.425781-1.601563 7.09375-3.550781 11.570312-10.800781 11.570312-18.734374 0-7.933594-4.476562-15.183594-11.570312-18.734376zm0 0" fill="#da922a"/><path d="m128.5 112h32v56h-32zm0 0" fill="#6b9777"/><path d="m200.5 112h32v56h-32zm0 0" fill="#6b9777"/><path d="m248.5 232h-128c-4.417969 0-8-3.582031-8-8s3.582031-8 8-8h128c4.417969 0 8 3.582031 8 8s-3.582031 8-8 8zm0 0" fill="#85bc94"/><path d="m90.300781 337.800781 32.542969-32.554687c12.414062-12.449219 13.105469-32.371094 1.585938-45.652344-11.519532-13.28125-31.339844-15.410156-45.417969-4.882812l-57.09375 42.824218c-7.425781 5.570313-12.210938 13.972656-13.210938 23.199219h-.207031v71.265625c0 8 48 72 48 72h72v-54.222656c0-21.628906-8.59375-42.371094-23.886719-57.664063zm0 0" fill="#f6bb92"/><path d="m248.5 120h-128v-24l64-24 64 24zm0 0" fill="#85bc94"/><path d="m120.5 160h128v32h-128zm0 0" fill="#85bc94"/><path d="m264.5 0h-160c-22.082031.0273438-39.972656 17.917969-40 40v215.59375l-47.382812 35.542969c-8.644532 6.496093-14.417969 16.101562-16.097657 26.785156-.347656.917969-.523437 1.894531-.519531 2.878906v71.199219c0 2.640625 0 10.664062 49.601562 76.800781 1.507813 2.011719 3.878907 3.199219 6.398438 3.199219h216c3.445312 0 6.503906-2.203125 7.59375-5.472656l12.796875-38.480469c1.390625-1.40625 2.671875-2.910156 3.839844-4.503906 5.171875-.132813 10.234375-1.527344 14.746093-4.054688l34.871094-19.59375c10.007813-5.539062 16.269532-16.023437 16.398438-27.460937.132812-11.4375-5.886719-22.066406-15.765625-27.832032 10-5.664062 16.171875-16.277343 16.152343-27.769531-.023437-11.492187-6.234374-22.078125-16.257812-27.703125 8.773438-6.25 13.761719-16.535156 13.234375-27.296875-.523437-10.757812-6.492187-20.507812-15.832031-25.871093 15.148437-8.792969 20.414062-28.136719 11.808594-43.394532-8.601563-15.257812-27.875-20.761718-43.242188-12.351562l-8.34375 4.707031v-144.921875c-.027344-22.082031-17.917969-39.9726562-40-40zm-50.246094 16-4 16h-51.503906l-4-16zm-93.753906 440h-60c-16.105469-20.5625-30.808594-42.1875-44-64.726562v-68.679688c.074219-.320312.128906-.644531.167969-.96875.761719-7.035156 4.398437-13.441406 10.046875-17.695312l57.097656-42.816407c10.71875-8.015625 25.808594-6.394531 34.582031 3.71875 8.769531 10.113281 8.242188 25.28125-1.207031 34.761719l-32.542969 32.550781c-3.125 3.125-3.125 8.1875 0 11.3125l14.3125 14.320313c13.835938 13.761718 21.59375 32.488281 21.542969 52.007812zm-10.230469-109.535156-8.65625-8.664063 21.03125-21.039062c13.945313 23.609375 40.101563 37.230469 67.4375 35.125 27.339844-2.101563 51.101563-19.574219 61.269531-45.039063 10.164063-25.464844 4.960938-54.496094-13.410156-74.847656h10.558594c4.417969 0 8-3.582031 8-8s-3.582031-8-8-8h-128c-4.417969 0-8 3.582031-8 8s3.582031 8 8 8h10.398438c-3.898438 4.363281-7.253907 9.179688-9.992188 14.351562-12.222656-7.613281-27.53125-8.320312-40.40625-1.863281v-204.488281c0-13.253906 10.746094-24 24-24h33.753906l4.964844 19.871094c1.777344 7.128906 8.183594 12.128906 15.53125 12.128906h51.503906c7.34375 0 13.75-5 15.527344-12.128906l4.96875-19.871094h33.75c13.253906 0 24 10.746094 24 24v152c.050781.582031.164062 1.15625.34375 1.710938l-10.847656 6.105468c-10.023438 5.554688-16.285156 16.066406-16.394532 27.527344-.109374 11.457031 5.953126 22.089844 15.867188 27.832031-9.992188 5.679688-16.167969 16.28125-16.1875 27.773438-.015625 11.492187 6.132812 22.109375 16.105469 27.820312-8.714844 6.257813-13.667969 16.503907-13.152344 27.222657s6.421875 20.445312 15.699219 25.839843c-5.011719 2.890625-9.136719 7.097657-11.929688 12.167969h-138.097656c-4.503906-11.058594-11.183594-21.101562-19.636719-29.535156zm61.804688-63.730469 17.691406 8.839844c1.675781.839843 2.734375 2.550781 2.734375 4.425781s-1.058594 3.585938-2.734375 4.425781c-3.320313 1.644531-7.21875 1.644531-10.539063 0l-7.160156-3.585937c-3.953125-1.976563-8.757812-.371094-10.734375 3.585937-1.976562 3.953125-.371093 8.757813 3.585938 10.734375l7.15625 3.574219c1.425781.660156 2.902343 1.195313 4.417969 1.601563v11.664062h16v-11.671875c1.515624-.40625 2.996093-.941406 4.425781-1.601563 7.09375-3.550781 11.570312-10.800781 11.570312-18.734374 0-7.933594-4.476562-15.183594-11.570312-18.734376l-17.691407-8.84375c-1.675781-.835937-2.734374-2.546874-2.734374-4.421874s1.058593-3.585938 2.734374-4.425782c3.320313-1.644531 7.21875-1.644531 10.539063 0l7.160156 3.585938c3.953125 1.976562 8.757813.371094 10.734375-3.585938 1.976563-3.953125.371094-8.757812-3.585937-10.734375l-7.199219-3.574219c-1.421875-.660156-2.898438-1.195312-4.414062-1.601562v-11.65625h20.839843c20.613281 12.273438 31.113281 36.320312 26.09375 59.78125-5.015625 23.460938-24.433593 41.109375-48.265625 43.875-23.828125 2.765625-46.773437-9.96875-57.027344-31.65625 9.09375-14.046875 8.761719-32.207031-.839843-45.910156 4.601562-10.871094 12.527343-20.003906 22.636719-26.089844h20.601562v11.671875c-1.515625.40625-2.996094.941406-4.425781 1.601563-7.09375 3.550781-11.570313 10.800781-11.570313 18.734374 0 7.933594 4.476563 15.183594 11.570313 18.734376zm105.769531-4.0625c1.144531-4.082031 3.871094-7.539063 7.578125-9.601563l25.328125-14.230468 9.597656-5.367188c7.6875-4.15625 17.285156-1.375 21.5625 6.246094 4.273438 7.621094 1.644532 17.261719-5.90625 21.65625l-34.871094 19.59375c-5.644531 3.171875-12.640624 2.632812-17.730468-1.367188s-7.269532-10.671874-5.519532-16.90625zm-101.34375 177.328125h-40v-16h40zm90.230469 0h-74.230469v-16h72c2.636719-.023438 5.265625-.308594 7.847656-.847656zm12.386719-37.152344c-4.164063 3.296875-9.308594 5.109375-14.617188 5.152344h-128v-14.214844c0-5.972656-.585938-11.929687-1.761719-17.785156h129.242188c-.042969 10.980469 5.742187 21.160156 15.199219 26.742188zm59.414062-32.902344-34.832031 19.582032c-7.710938 4.339844-17.480469 1.605468-21.820313-6.105469-4.335937-7.714844-1.601562-17.484375 6.109375-21.820313l22.175781-12.457031c.574219-.28125 1.175782-.511719 1.734376-.800781l11.867187-6.664062c7.574219-3.769532 16.773437-.914063 20.886719 6.480468 4.324218 7.707032 1.585937 17.457032-6.121094 21.785156zm6.527344-76.929687c4.332031 7.707031 1.597656 17.464844-6.109375 21.792969l-22.769531 12.800781c-.375.191406-.800782.292969-1.152344.503906l-12.128906 6.808594c-3.425782 1.632813-7.335938 1.964844-10.992188.933594-6.222656-1.753907-10.78125-7.078125-11.546875-13.5-.769531-6.417969 2.402344-12.671875 8.035156-15.84375l34.882813-19.589844c2.382812-1.351563 5.074218-2.0625 7.816406-2.066406 1.46875.003906 2.929688.210937 4.34375.609375 4.085938 1.132812 7.550781 3.851562 9.621094 7.550781zm-24.359375-114.847656c7.707031-4.328125 17.460937-1.589844 21.789062 6.117187 4.328125 7.703125 1.589844 17.460938-6.117187 21.785156l-23.871094 13.425782-2.398438 1.359375-8.53125 4.800781c-4.992187 2.972656-11.207031 3.003906-16.230468.082031-5.023438-2.921875-8.066406-8.339843-7.953125-14.148437.117187-5.8125 3.375-11.101563 8.511719-13.820313zm0 0"/><path d="m251.308594 88.503906-64-24c-1.808594-.667968-3.792969-.667968-5.601563 0l-64 24c-3.128906 1.167969-5.207031 4.15625-5.207031 7.496094v24c0 4.417969 3.582031 8 8 8v24c-4.417969 0-8 3.582031-8 8v32c0 4.417969 3.582031 8 8 8h128c4.417969 0 8-3.582031 8-8v-32c0-4.417969-3.582031-8-8-8h-8v-24h8c4.417969 0 8-3.582031 8-8v-24c.003906-3.335938-2.066406-6.324219-5.191406-7.496094zm-10.808594 95.496094h-112v-16h112zm-104-32v-24h16v24zm32 0v-24h24v24zm40 0v-24h16v24zm32-40h-112v-10.457031l56-21 56 21zm0 0"/></svg>